# xmcd
#
# Track frame offsets: 
#        150
#        15819
#        34826
#        48245
#        62608
#        78651
#        94586
#        109887
#        125224
#        140252
#        151374
#        163149
#        178239
#        193906
#        205162
#        222209
#        239523
#        259661
#        276749
#        289394
#        307875
#        315149
#        325212
#        339518
#
# Disc length: 4766 seconds
#
# Revision: 1
# Processed by: cddbd v1.5.2PL0 Copyright (c) Steve Scherf et al.
# Submitted via: ExactAudioCopy v1.0b3
#
DISCID=64129c18
DTITLE=Pacifik - 30 let
DYEAR=2001
DGENRE=Country
TTITLE0=Tulácký blues
TTITLE1=Džínová láska
TTITLE2=Krutá válka
TTITLE3=Velrybářská výprava
TTITLE4=Kovbojův nářek
TTITLE5=Zlatý údolí
TTITLE6=Kalendář
TTITLE7=Ztracený tratě
TTITLE8=Srdce mám kovboje
TTITLE9=Boty tlačí nás
TTITLE10=Blátivá cesta
TTITLE11=Bonanza
TTITLE12=Karlínský nábřeží
TTITLE13=Dál, dál, dál
TTITLE14=Pomoz mi, brácho
TTITLE15=Krysař a král
TTITLE16=Malý velký muž
TTITLE17=R A F
TTITLE18=Vlak do země blues
TTITLE19=Zahrajte mistře moje tango
TTITLE20=Kastrovali kocoura
TTITLE21=Tvůj čas
TTITLE22=Drahoušek
TTITLE23=Ranec plnej písní
EXTD=
EXTT0=
EXTT1=
EXTT2=
EXTT3=
EXTT4=
EXTT5=
EXTT6=
EXTT7=
EXTT8=
EXTT9=
EXTT10=
EXTT11=
EXTT12=
EXTT13=
EXTT14=
EXTT15=
EXTT16=
EXTT17=
EXTT18=
EXTT19=
EXTT20=
EXTT21=
EXTT22=
EXTT23=
PLAYORDER=
